<?xml version="1.0" encoding="UTF-8"?>
<svg id="Layer_2" data-name="Layer 2" xmlns="http://www.w3.org/2000/svg" viewBox="0 0 500 502.53">
  <defs>
    <style>
      .cls-1 {
        fill: #2d2b28;
      }

      .cls-2 {
        fill: #4a56a5;
      }
    </style>
  </defs>
  <g id="Layer_1-2" data-name="Layer 1">
    <g>
      <path class="cls-2" d="M187.28,92.09c-30.72-13.21-68.9-6.75-87,23.22-10.18,16.86-6.2,41.82,7,56.03,3.12,3.36,10.94,8.7,15.58,5.92,1.91-1.14,7.62-13.45,10.12-16.63,13.41-17.06,40.43-28.33,61.98-25.33-1.45,21.56-17.48,43.75-33.43,57.6-34.09,29.58-85.14,37.27-110.75,76.21-.05.63-.18,1.25-.36,1.88,1.01.56,1.8,1.4,2.72,2.1.97.74,2,1.41,3.03,2.06,2.22,1.38,4.49,2.71,6.73,4.07,8.17,4.98,16.52,9.63,25.19,13.69,8.17,3.83,16.92,7.43,26.07,7.64.39,0,.72.13.97.32,31.18-23.75,70.1-34.69,98.79-62.29,53.93-51.87,41.54-117.18-26.63-146.48h0Z"/>
      <path class="cls-2" d="M61.91,310.93c-.73-.45-1.45-.92-2.15-1.41-1-.6-2-1.23-2.93-1.93-.8-.61-1.58-1.25-2.33-1.91-.82-.6-1.65-1.19-2.49-1.75-3.14-2.1-6.28-4.26-8.52-7.36-.03-.05-.06-.1-.08-.15.44,1.6-.09,4.37.09,6.2.47,5.04,1.45,10.06,3.43,14.72.02.05.05.1.07.15,1.74,2.54,4.2,5.01,7.42,5.22,1.51.1,2.95-.24,4.33-.82.96-.72,2.23-1.72,3.53-2.74,1.49-1.49,3.01-2.95,4.58-4.36.25-.22.5-.44.76-.67-1.9-1.05-3.85-2.05-5.7-3.18h-.01Z"/>
      <path class="cls-2" d="M45.64,369.59c-1.14,1.11-3.82,1.94-5.39,2.02-9.88.52-18.82-11.77-22.81-19.59-1.78-3.5-4.08-9.15-1.47-12.61.32-.42,1.03-.53,1.34-1.07,1.13-1.93.08-3.07,3.76-2.71,3.81.38,14.87,6.65,17.95,9.27,5.58,4.75,13.03,18.4,6.61,24.69h0Z"/>
    </g>
    <path class="cls-1" d="M38.17,285.91c.76-1.07,1.51-2.14,2.24-3.23,1.65-2.47,3.21-5.02,4.54-7.68.58-1.15,1.09-2.33,1.61-3.51.22-.5.44-1.01.59-1.53C18.35,236.5,3.77,186.18,7.7,142.38c1.63-18.18,5.39-28.94,11.86-45.35.37-.95,1.54-2.14-.34-1.83-1.18,2.14-3.08,4.06-4.24,6.16-9.17,16.54-11.93,33.94-13.67,52.62-4.83,51.91,2.98,88.07,34.62,129.57.5.66,1.32,1.47,2.23,2.36h.01Z"/>
    <path class="cls-1" d="M407.74,362.32c10.87,12.5,23.4,23.82,36.17,34.6,6.98,5.97,14.33,12.87,16.5,22.03,4.97,23.96-21.91,47.47-44.65,47.51-8.82.22-17.35-2.71-25.02-7.03-19.28-11.87-37.7-26.03-55.08-40.29-13.18-10.73-24.65-24.32-38.78-33.73-3.86-2.53-12.17-6.66-10.91.57,1.73,6.15,5.91,11.02,10.93,17.08,2.72,3.14,5.54,6.09,8.38,8.95,1.13,1.32,16.56,15.78,8.69,10.6-10.45-7-20.53-17.6-33.3-21.19-13.68-4.35-29.41-.49-42.88-5.45-6.19-2.3-10.67-6.47-10.91-10.7-.49-3.8,3.31-8.11,7.48-10.49,8.29-4.91,18.46-7.19,27.21-11.52,35.34-16.93,68.65-48.08,87.84-82.29,2.04-3.16,4.28-6.08,6.66-8.29,7.85-7.54,15.39-3.72,19.03,5.67,3.52,8.53,1.44,18.88,1.3,27.9-.19,6.47.58,12.94,3.34,18.83,2.76,6.17,7.93,12.19,12.44,18.11,5,6.47,10.06,12.89,15.47,19.03l.1.12v-.02Z"/>
    <path class="cls-1" d="M482.53,433.59c3.24-.53,8.35,6.69,10.66,10.1,3.84,5.58,6.56,11.29,6.8,17.51.22,10.21-5.32,23-12.24,30.77-12.57,13.44-37.37,12.57-53.13,5.58-2.79-1.26-6.99-3.54-8.08-5.99-1.96-4.84,11.01-6.73,15.57-9.21,4.32-1.89,8.42-4.29,12.17-7.09,8.88-6.64,15.96-15.65,20.25-25.88,2.55-5.2,3.72-14.88,7.93-15.78h.07,0Z"/>
    <path class="cls-1" d="M271.43,37.65C217.19-1.58,148.78-14.16,88.19,19.27,39.52,46.12,22.41,87.63,27.86,142.27c2.13,21.34,8.34,41.88,11.8,62.88,2.45-1.16,1.23-4.67,1.57-6.97,7.64-51.37,30.36-92.29,73.52-121.9,44.1-30.26,110.45-37.21,153.37-1.14,29.55,24.84,30.44,74.7,20.99,109.37-19.99,73.34-94.62,121.65-169.38,117.64-3.24,2.04-6.45,4.14-9.61,6.32-1.13.78-2.25,1.57-3.37,2.37.02.03.04.05.06.08-1.98,1.13-3.92,2.33-5.79,3.63-1.52,1.06-2.99,2.17-4.43,3.33-1.28,1.03-2.48,2.12-3.43,3.44-1.52,1.26-3.02,2.54-4.5,3.85,65.64,31.51,151.73,21.4,205.42-28.34,77.65-71.93,60.37-199.16-22.62-259.18h-.03Z"/>
  </g>
</svg>