<?xml version="1.0" encoding="UTF-8"?>
<svg id="Layer_2" data-name="Layer 2" xmlns="http://www.w3.org/2000/svg" width="2.79in" height=".45in" xmlns:xlink="http://www.w3.org/1999/xlink" viewBox="0 0 201.22 32.71">
  <defs>
    <style>
      .cls-1 {
        fill: #2d2b28;
      }

      .cls-2 {
        fill: #4a56a5;
      }
    </style>
    <symbol id="Lettermark_black" data-name="Lettermark black" viewBox="0 0 1132.04 127.13">
      <g>
        <g>
          <path class="cls-2" d="M41.92,125.94l-6.81-92.02,42.1,3.58L68.79,3.24,0,.51l6.81,121.34,35.11,4.09Z"/>
          <path class="cls-2" d="M180.59,91.68l-8.42-59.48c-2.15-15.17-5.92-30.33-30.28-30.5l-20.97-.17c-21.32-.17-31.89,6.14-32.07,33.06l-.54,59.48c-.18,18.91,3.58,28.8,18.27,29.83l36.37,2.56c30.63,2.22,40.84-11.93,37.62-34.76h0l.02-.02ZM122.54,88.44l-.35-55.89c0-2.72-.18-4.6,3.94-4.43l8.06.34c4.48.17,4.3,3.06,4.48,5.28l5.55,57.77c.36,3.41-.9,4.6-4.84,4.09l-12.54-1.71c-3.04-.34-4.3-2.05-4.3-5.45h0Z"/>
          <path class="cls-2" d="M283.06,108.72l-3.76-28.29-31.35-2.05.72,9.89c.36,3.75-1.97,7.15-7.52,6.99l-8.6-.17c-3.94,0-5.92-3.92-5.74-6.65l.18-5.28c0-2.05,3.4-6.3,8.42-8.18l24.54-9.2c16.13-6.14,20.78-15.17,18.81-27.61l-2.15-13.98c-2.32-14.66-9.31-19.77-22.22-21.81-12.9-2.05-33.68-2.05-43.89,1.03-10.21,3.06-15.58,14.66-15.95,22.15l-.72,14.48,32.6.85,1.07-7.67c.36-2.05,1.43-3.75,4.66-4.26,3.22-.51,6.63-.34,9.31,0s4.12,2.05,4.3,4.26l.35,3.92c.18,2.72-1.97,5.45-7.17,6.99l-25.08,8.01c-15.95,5.12-20.97,10.57-21.32,26.93l-.54,23.52c-.35,16.53,10.75,22.15,29.2,22.66l33.68,1.02c15.58.51,29.38-7.5,28.13-17.55h.04Z"/>
          <path class="cls-2" d="M392.71,127.13l-5.19-35.45-29.2-1.19-2.69-87.08-35.3-2.05,3.58,88.96-33.15-1.37,3.22,33.06,98.73,5.12Z"/>
        </g>
        <g>
          <path class="cls-1" d="M457.38,94.14l11.1-59.18-16.3-1.84-2.03,10.73-13.49.51-1.77-10.48-17.45-.25,13.57,58.68,26.35,1.84h.02ZM439.05,56.42l8.72-.17-4.5,22.63-4.23-22.47h.01Z"/>
          <path class="cls-1" d="M490.43,94.48l17.18-32.69.7,31.35,15.43,1.59-2.64-60.44-12.78-1.51-17.28,30.51-.44-29.67-16.04-1.17,2.64,60.86,13.22,1.17h.01Z"/>
          <path class="cls-1" d="M557.06,94.06c11.28.59,21.77-2.02,21.77-14.42,0-8.97-2.91-25.98-4.5-31.77-1.68-6.12-6.43-13.58-20.01-14.08l-20.8-.75,2.03,44.09-5.64-.17,2.38,15.84,24.76,1.26h0ZM550.71,48.29l3.79-.08c2.29-.08,2.56.59,3.52,3.61.53,1.68,3.17,20.87,3.17,23.89,0,1.43-1.68,1.59-3.35,1.59l-5.03-.08-2.11-28.92h.01Z"/>
        </g>
        <g>
          <path class="cls-2" d="M691.5,126.28l-7.34-34.76-27.41-1.37-1.07-16.53,27.41,1.87-5.55-31.02-24.54-1.36-2.87-38.85-32.6-3.75,3.58,88.78-11.46-.34,3.22,33.23,78.65,4.09h-.02Z"/>
          <path class="cls-2" d="M793.8,91.68l-8.42-59.48c-2.15-15.17-5.92-30.33-30.28-30.5l-20.97-.17c-21.32-.17-31.89,6.14-32.07,33.06l-.54,59.48c-.18,18.91,3.58,28.8,18.27,29.83l36.37,2.56c30.63,2.22,40.84-11.93,37.62-34.76h0l.02-.02ZM735.75,88.44l-.35-55.89c0-2.72-.18-4.6,3.94-4.43l8.06.34c4.48.17,4.3,3.06,4.48,5.28l5.55,57.77c.36,3.41-.9,4.6-4.84,4.09l-12.54-1.71c-3.04-.34-4.3-2.05-4.3-5.45h0Z"/>
          <path class="cls-2" d="M842.17,36.63c0-4.77.72-4.94,3.58-5.62,4.48-1.03,9.68-.68,11.65-.34,1.97.34,3.4,3.06,3.76,6.48l7.17,85.54,38.52,3.06-9.31-85.21c-2.87-26.41-11.29-39.88-32.78-39.88h-23.83c-26.16,0-32.07,10.57-32.78,34.42l-2.51,86.74,37.62,4.43-1.07-89.64h-.02v.02Z"/>
          <path class="cls-2" d="M952.35,126.1l34.93-66.46,1.43,63.73,31.35,3.24-5.37-122.87-25.98-3.06-35.12,62.03-.9-60.33-32.6-2.38,5.37,123.73,26.87,2.38h.02Z"/>
          <path class="cls-2" d="M1087.79,125.25c22.94,1.19,44.25-4.09,44.25-29.31,0-18.23-5.92-52.83-9.14-64.59-3.4-12.44-13.08-27.61-40.67-28.63l-42.28-1.53,4.12,89.64-11.46-.34,4.84,32.21,50.35,2.56h0ZM1074.89,32.2l7.71-.17c4.66-.17,5.2,1.19,7.17,7.33,1.07,3.41,6.45,42.44,6.45,48.57,0,2.9-3.4,3.24-6.81,3.24l-10.21-.17-4.3-58.79h0Z"/>
        </g>
      </g>
    </symbol>
  </defs>
  <use width="1132.04" height="127.13" transform="translate(39.5 25.44) scale(.14 -.14)" xlink:href="#Lettermark_black"/>
  <g id="Layer_1-2" data-name="Layer 1-2">
    <g>
      <path class="cls-2" d="M12.19,5.99c-2-.86-4.48-.44-5.66,1.51-.66,1.1-.4,2.72.46,3.65.2.22.71.57,1.01.39.12-.07.5-.88.66-1.08.87-1.11,2.63-1.84,4.03-1.65-.09,1.4-1.14,2.85-2.18,3.75-2.22,1.93-5.54,2.43-7.21,4.96,0,.04-.01.08-.02.12.07.04.12.09.18.14.06.05.13.09.2.13.14.09.29.18.44.26.53.32,1.08.63,1.64.89.53.25,1.1.48,1.7.5.03,0,.05,0,.06.02,2.03-1.55,4.56-2.26,6.43-4.05,3.51-3.38,2.7-7.63-1.73-9.53h0Z"/>
      <path class="cls-2" d="M4.03,20.24s-.09-.06-.14-.09c-.07-.04-.13-.08-.19-.13-.05-.04-.1-.08-.15-.12-.05-.04-.11-.08-.16-.11-.2-.14-.41-.28-.55-.48,0,0,0,0,0,0,.03.1,0,.28,0,.4.03.33.09.65.22.96,0,0,0,0,0,0,.11.17.27.33.48.34.1,0,.19-.02.28-.05.06-.05.15-.11.23-.18.1-.1.2-.19.3-.28.02-.01.03-.03.05-.04-.12-.07-.25-.13-.37-.21h0Z"/>
      <path class="cls-2" d="M2.97,24.06c-.07.07-.25.13-.35.13-.64.03-1.22-.77-1.48-1.28-.12-.23-.27-.6-.1-.82.02-.03.07-.03.09-.07.07-.13,0-.2.24-.18.25.02.97.43,1.17.6.36.31.85,1.2.43,1.61h0Z"/>
    </g>
    <path class="cls-1" d="M2.48,18.61c.05-.07.1-.14.15-.21.11-.16.21-.33.3-.5.04-.07.07-.15.1-.23.01-.03.03-.07.04-.1C1.19,15.39.25,12.12.5,9.27c.11-1.18.35-1.88.77-2.95.02-.06.1-.14-.02-.12-.08.14-.2.26-.28.4-.6,1.08-.78,2.21-.89,3.43-.31,3.38.19,5.73,2.25,8.43.03.04.09.1.15.15h0Z"/>
    <path class="cls-1" d="M26.54,23.58c.71.81,1.52,1.55,2.35,2.25.45.39.93.84,1.07,1.43.32,1.56-1.43,3.09-2.91,3.09-.57.01-1.13-.18-1.63-.46-1.25-.77-2.45-1.69-3.59-2.62-.86-.7-1.6-1.58-2.52-2.2-.25-.16-.79-.43-.71.04.11.4.38.72.71,1.11.18.2.36.4.55.58.07.09,1.08,1.03.57.69-.68-.46-1.34-1.15-2.17-1.38-.89-.28-1.91-.03-2.79-.35-.4-.15-.69-.42-.71-.7-.03-.25.22-.53.49-.68.54-.32,1.2-.47,1.77-.75,2.3-1.1,4.47-3.13,5.72-5.36.13-.21.28-.4.43-.54.51-.49,1-.24,1.24.37.23.56.09,1.23.08,1.82-.01.42.04.84.22,1.23.18.4.52.79.81,1.18.33.42.65.84,1.01,1.24h0s0,0,0,0h0Z"/>
    <path class="cls-1" d="M31.41,28.22c.21-.03.54.44.69.66.25.36.43.73.44,1.14.01.66-.35,1.5-.8,2-.82.87-2.43.82-3.46.36-.18-.08-.45-.23-.53-.39-.13-.32.72-.44,1.01-.6.28-.12.55-.28.79-.46.58-.43,1.04-1.02,1.32-1.68.17-.34.24-.97.52-1.03h0,0Z"/>
    <path class="cls-1" d="M17.67,2.45C14.14-.1,9.68-.92,5.74,1.25,2.57,3,1.46,5.7,1.81,9.26c.14,1.39.54,2.73.77,4.09.16-.08.08-.3.1-.45.5-3.34,1.98-6.01,4.79-7.93,2.87-1.97,7.19-2.42,9.98-.07,1.92,1.62,1.98,4.86,1.37,7.12-1.3,4.77-6.16,7.92-11.02,7.66-.21.13-.42.27-.63.41-.07.05-.15.1-.22.15,0,0,0,0,0,0-.13.07-.26.15-.38.24-.1.07-.19.14-.29.22-.08.07-.16.14-.22.22-.1.08-.2.17-.29.25,4.27,2.05,9.88,1.39,13.37-1.84,5.05-4.68,3.93-12.96-1.47-16.87h0,0Z"/>
  </g>
</svg>